<svg width="273" height="66" viewBox="0 0 273 66" fill="none" xmlns="http://www.w3.org/2000/svg">
<path d="M57.3114 41.5573C57.3114 31.385 49.1004 23.1387 38.9717 23.1387H23.6887V41.5573H38.9717V64.5805H57.3114V41.5573Z" fill="white"/>
<path d="M0.76416 43.0922C0.764162 54.9599 10.3436 64.5805 22.1604 64.5805H34.3868V46.1619H22.1604C20.4722 46.1619 19.1038 44.7876 19.1038 43.0922V41.5573H0.76416V43.0922Z" fill="white"/>
<path d="M38.9717 0.115417C61.7613 0.115417 80.2359 18.6696 80.2359 41.5573V64.5805H61.8962V41.5573C61.8962 28.8418 51.6326 18.534 38.9717 18.534H22.1604C20.4722 18.534 19.1038 19.9084 19.1038 21.6038V23.1387H0.76416V21.6038C0.764162 9.73609 10.3436 0.115417 22.1604 0.115417H38.9717Z" fill="white"/>
<path d="M100.239 28.674C100.188 28.1584 99.9688 27.7578 99.581 27.4723C99.1932 27.1868 98.6669 27.044 98.0021 27.044C97.5504 27.044 97.169 27.108 96.858 27.2358C96.5469 27.3594 96.3082 27.532 96.142 27.7536C95.9801 27.9751 95.8991 28.2266 95.8991 28.5078C95.8906 28.7422 95.9396 28.9467 96.0462 29.1214C96.157 29.2962 96.3082 29.4474 96.5 29.5753C96.6918 29.6989 96.9134 29.8075 97.1648 29.9013C97.4162 29.9908 97.6847 30.0675 97.9702 30.1314L99.1463 30.4126C99.7173 30.5405 100.241 30.7109 100.719 30.924C101.196 31.1371 101.609 31.3991 101.959 31.7102C102.308 32.0213 102.579 32.3878 102.771 32.8097C102.967 33.2315 103.067 33.7152 103.071 34.2607C103.067 35.0618 102.862 35.7564 102.457 36.3445C102.057 36.9283 101.477 37.3821 100.719 37.706C99.9645 38.0256 99.0547 38.1854 97.9893 38.1854C96.9325 38.1854 96.0121 38.0234 95.228 37.6996C94.4482 37.3757 93.8388 36.8963 93.3999 36.2614C92.9652 35.6222 92.7372 34.8317 92.7159 33.8899H95.3942C95.424 34.3288 95.5497 34.6953 95.7713 34.9893C95.9972 35.2791 96.2976 35.4986 96.6726 35.6477C97.0518 35.7926 97.4801 35.8651 97.9574 35.8651C98.4261 35.8651 98.8331 35.7969 99.1783 35.6605C99.5277 35.5241 99.7983 35.3345 99.9901 35.0916C100.182 34.8487 100.278 34.5696 100.278 34.2543C100.278 33.9602 100.19 33.7131 100.016 33.5128C99.8452 33.3125 99.5938 33.142 99.2614 33.0014C98.9332 32.8608 98.5305 32.733 98.0533 32.6179L96.6278 32.2599C95.5241 31.9915 94.6527 31.5717 94.0135 31.0007C93.3743 30.4297 93.0568 29.6605 93.0611 28.6932C93.0568 27.9006 93.2678 27.2081 93.6939 26.6158C94.1243 26.0234 94.7145 25.5611 95.4645 25.2287C96.2145 24.8963 97.0668 24.7301 98.0213 24.7301C98.9929 24.7301 99.8409 24.8963 100.565 25.2287C101.294 25.5611 101.861 26.0234 102.266 26.6158C102.67 27.2081 102.879 27.8942 102.892 28.674H100.239ZM104.882 38V28.1818H107.605V38H104.882ZM106.249 26.9162C105.845 26.9162 105.497 26.782 105.208 26.5135C104.922 26.2408 104.779 25.9148 104.779 25.5355C104.779 25.1605 104.922 24.8388 105.208 24.5703C105.497 24.2976 105.845 24.1612 106.249 24.1612C106.654 24.1612 106.999 24.2976 107.285 24.5703C107.575 24.8388 107.72 25.1605 107.72 25.5355C107.72 25.9148 107.575 26.2408 107.285 26.5135C106.999 26.782 106.654 26.9162 106.249 26.9162ZM117.955 30.9815L115.462 31.1349C115.419 30.9219 115.328 30.7301 115.187 30.5597C115.047 30.3849 114.861 30.2464 114.631 30.1442C114.405 30.0376 114.135 29.9844 113.819 29.9844C113.397 29.9844 113.042 30.0739 112.752 30.2528C112.462 30.4276 112.317 30.6619 112.317 30.956C112.317 31.1903 112.411 31.3885 112.598 31.5504C112.786 31.7124 113.108 31.8423 113.564 31.9403L115.341 32.2983C116.295 32.4943 117.007 32.8097 117.475 33.2443C117.944 33.679 118.179 34.25 118.179 34.9574C118.179 35.6009 117.989 36.1655 117.61 36.6513C117.235 37.1371 116.719 37.5163 116.063 37.7891C115.411 38.0575 114.659 38.1918 113.806 38.1918C112.507 38.1918 111.471 37.9212 110.7 37.38C109.933 36.8345 109.483 36.093 109.351 35.1555L112.029 35.0149C112.11 35.4112 112.306 35.7138 112.618 35.9226C112.929 36.1271 113.327 36.2294 113.813 36.2294C114.29 36.2294 114.674 36.1378 114.963 35.9545C115.257 35.767 115.407 35.5263 115.411 35.2322C115.407 34.9851 115.302 34.7827 115.098 34.625C114.893 34.4631 114.578 34.3395 114.152 34.2543L112.451 33.9155C111.493 33.7237 110.779 33.3913 110.31 32.9183C109.846 32.4453 109.613 31.8423 109.613 31.1094C109.613 30.4787 109.784 29.9354 110.125 29.4794C110.47 29.0234 110.953 28.6719 111.576 28.4247C112.202 28.1776 112.935 28.054 113.775 28.054C115.015 28.054 115.99 28.3161 116.702 28.8402C117.418 29.3643 117.836 30.0781 117.955 30.9815ZM125.116 28.1818V30.2273H119.203V28.1818H125.116ZM120.545 25.8295H123.268V34.983C123.268 35.2344 123.307 35.4304 123.383 35.571C123.46 35.7074 123.567 35.8033 123.703 35.8587C123.844 35.9141 124.006 35.9418 124.189 35.9418C124.317 35.9418 124.444 35.9311 124.572 35.9098C124.7 35.8842 124.798 35.8651 124.866 35.8523L125.295 37.8786C125.158 37.9212 124.966 37.9702 124.719 38.0256C124.472 38.0852 124.172 38.1214 123.818 38.1342C123.162 38.1598 122.586 38.0724 122.092 37.8722C121.602 37.6719 121.221 37.3608 120.948 36.9389C120.675 36.517 120.541 35.9844 120.545 35.3409V25.8295ZM131.258 38.1918C130.248 38.1918 129.379 37.9872 128.65 37.5781C127.926 37.1648 127.368 36.581 126.976 35.8267C126.584 35.0682 126.388 34.1712 126.388 33.1357C126.388 32.1257 126.584 31.2393 126.976 30.4766C127.368 29.7138 127.92 29.1193 128.631 28.6932C129.347 28.267 130.187 28.054 131.15 28.054C131.797 28.054 132.4 28.1584 132.959 28.3672C133.521 28.5717 134.011 28.8807 134.429 29.294C134.851 29.7074 135.179 30.2273 135.413 30.8537C135.648 31.4759 135.765 32.2045 135.765 33.0398V33.7876H127.474V32.1001H133.202C133.202 31.7081 133.116 31.3608 132.946 31.0582C132.775 30.7557 132.539 30.5192 132.236 30.3487C131.938 30.174 131.591 30.0866 131.194 30.0866C130.781 30.0866 130.415 30.1825 130.095 30.3743C129.78 30.5618 129.532 30.8153 129.354 31.1349C129.175 31.4503 129.083 31.8018 129.079 32.1896V33.794C129.079 34.2798 129.168 34.6996 129.347 35.0533C129.53 35.407 129.788 35.6797 130.121 35.8714C130.453 36.0632 130.847 36.1591 131.303 36.1591C131.606 36.1591 131.883 36.1165 132.134 36.0312C132.385 35.946 132.601 35.8182 132.78 35.6477C132.959 35.4773 133.095 35.2685 133.189 35.0213L135.707 35.1875C135.579 35.7926 135.317 36.321 134.921 36.7727C134.529 37.2202 134.022 37.5696 133.4 37.821C132.782 38.0682 132.068 38.1918 131.258 38.1918ZM137.542 38V28.1818H140.137V29.9141H140.252C140.456 29.3388 140.797 28.8849 141.275 28.5526C141.752 28.2202 142.323 28.054 142.988 28.054C143.661 28.054 144.234 28.2223 144.707 28.5589C145.18 28.8913 145.496 29.343 145.653 29.9141H145.756C145.956 29.3516 146.318 28.902 146.842 28.5653C147.371 28.2244 147.995 28.054 148.715 28.054C149.631 28.054 150.375 28.3459 150.946 28.9297C151.521 29.5092 151.809 30.3317 151.809 31.397V38H149.092V31.9339C149.092 31.3885 148.947 30.9794 148.657 30.7067C148.368 30.4339 148.006 30.2976 147.571 30.2976C147.077 30.2976 146.691 30.4553 146.414 30.7706C146.137 31.0817 145.998 31.4929 145.998 32.0043V38H143.358V31.8764C143.358 31.3949 143.22 31.0114 142.943 30.7259C142.67 30.4403 142.31 30.2976 141.863 30.2976C141.56 30.2976 141.287 30.3743 141.045 30.5277C140.806 30.6768 140.616 30.8878 140.476 31.1605C140.335 31.429 140.265 31.7443 140.265 32.1065V38H137.542ZM158.177 38V24.9091H163.342C164.335 24.9091 165.18 25.0987 165.879 25.478C166.578 25.853 167.111 26.375 167.477 27.044C167.848 27.7088 168.033 28.4759 168.033 29.3452C168.033 30.2145 167.846 30.9815 167.471 31.6463C167.096 32.3111 166.553 32.8288 165.841 33.1996C165.134 33.5703 164.277 33.7557 163.271 33.7557H159.979V31.5376H162.824C163.357 31.5376 163.795 31.446 164.141 31.2628C164.49 31.0753 164.75 30.8175 164.92 30.4893C165.095 30.157 165.183 29.7756 165.183 29.3452C165.183 28.9105 165.095 28.5312 164.92 28.2074C164.75 27.8793 164.49 27.6257 164.141 27.4467C163.791 27.2635 163.348 27.1719 162.811 27.1719H160.945V38H158.177ZM174.096 38.1918C173.086 38.1918 172.217 37.9872 171.488 37.5781C170.764 37.1648 170.206 36.581 169.814 35.8267C169.422 35.0682 169.225 34.1712 169.225 33.1357C169.225 32.1257 169.422 31.2393 169.814 30.4766C170.206 29.7138 170.757 29.1193 171.469 28.6932C172.185 28.267 173.025 28.054 173.988 28.054C174.635 28.054 175.238 28.1584 175.797 28.3672C176.359 28.5717 176.849 28.8807 177.267 29.294C177.689 29.7074 178.017 30.2273 178.251 30.8537C178.485 31.4759 178.603 32.2045 178.603 33.0398V33.7876H170.312V32.1001H176.039C176.039 31.7081 175.954 31.3608 175.784 31.0582C175.613 30.7557 175.377 30.5192 175.074 30.3487C174.776 30.174 174.429 30.0866 174.032 30.0866C173.619 30.0866 173.252 30.1825 172.933 30.3743C172.618 30.5618 172.37 30.8153 172.191 31.1349C172.012 31.4503 171.921 31.8018 171.917 32.1896V33.794C171.917 34.2798 172.006 34.6996 172.185 35.0533C172.368 35.407 172.626 35.6797 172.958 35.8714C173.291 36.0632 173.685 36.1591 174.141 36.1591C174.444 36.1591 174.721 36.1165 174.972 36.0312C175.223 35.946 175.439 35.8182 175.618 35.6477C175.797 35.4773 175.933 35.2685 176.027 35.0213L178.545 35.1875C178.417 35.7926 178.155 36.321 177.759 36.7727C177.367 37.2202 176.86 37.5696 176.238 37.821C175.62 38.0682 174.906 38.1918 174.096 38.1918ZM180.38 38V28.1818H183.02V29.8949H183.122C183.301 29.2855 183.601 28.8253 184.023 28.5142C184.445 28.1989 184.931 28.0412 185.48 28.0412C185.617 28.0412 185.764 28.0497 185.922 28.0668C186.079 28.0838 186.218 28.1072 186.337 28.1371V30.5533C186.209 30.5149 186.032 30.4808 185.806 30.451C185.581 30.4212 185.374 30.4062 185.186 30.4062C184.786 30.4062 184.428 30.4936 184.113 30.6683C183.801 30.8388 183.554 31.0774 183.371 31.3842C183.192 31.6911 183.103 32.0447 183.103 32.4453V38H180.38ZM191.762 38.1918C190.752 38.1918 189.883 37.9872 189.154 37.5781C188.43 37.1648 187.872 36.581 187.48 35.8267C187.088 35.0682 186.892 34.1712 186.892 33.1357C186.892 32.1257 187.088 31.2393 187.48 30.4766C187.872 29.7138 188.423 29.1193 189.135 28.6932C189.851 28.267 190.691 28.054 191.654 28.054C192.301 28.054 192.904 28.1584 193.463 28.3672C194.025 28.5717 194.515 28.8807 194.933 29.294C195.355 29.7074 195.683 30.2273 195.917 30.8537C196.151 31.4759 196.269 32.2045 196.269 33.0398V33.7876H187.978V32.1001H193.705C193.705 31.7081 193.62 31.3608 193.45 31.0582C193.279 30.7557 193.043 30.5192 192.74 30.3487C192.442 30.174 192.095 30.0866 191.698 30.0866C191.285 30.0866 190.919 30.1825 190.599 30.3743C190.284 30.5618 190.036 30.8153 189.857 31.1349C189.678 31.4503 189.587 31.8018 189.583 32.1896V33.794C189.583 34.2798 189.672 34.6996 189.851 35.0533C190.034 35.407 190.292 35.6797 190.624 35.8714C190.957 36.0632 191.351 36.1591 191.807 36.1591C192.11 36.1591 192.387 36.1165 192.638 36.0312C192.889 35.946 193.105 35.8182 193.284 35.6477C193.463 35.4773 193.599 35.2685 193.693 35.0213L196.211 35.1875C196.083 35.7926 195.821 36.321 195.425 36.7727C195.033 37.2202 194.526 37.5696 193.904 37.821C193.286 38.0682 192.572 38.1918 191.762 38.1918ZM200.769 32.3239V38H198.046V28.1818H200.641V29.9141H200.756C200.973 29.343 201.338 28.8913 201.849 28.5589C202.36 28.2223 202.98 28.054 203.709 28.054C204.391 28.054 204.985 28.2031 205.492 28.5014C205.999 28.7997 206.394 29.2259 206.675 29.7798C206.956 30.3295 207.097 30.9858 207.097 31.7486V38H204.374V32.2344C204.378 31.6335 204.225 31.1648 203.914 30.8281C203.602 30.4872 203.174 30.3168 202.629 30.3168C202.262 30.3168 201.938 30.3956 201.657 30.5533C201.38 30.7109 201.163 30.9411 201.005 31.2436C200.852 31.5419 200.773 31.902 200.769 32.3239ZM213.679 38.1918C212.673 38.1918 211.808 37.9787 211.084 37.5526C210.364 37.1222 209.81 36.5256 209.422 35.7628C209.038 35 208.847 34.1222 208.847 33.1293C208.847 32.1236 209.04 31.2415 209.428 30.483C209.82 29.7202 210.376 29.1257 211.097 28.6996C211.817 28.2692 212.673 28.054 213.666 28.054C214.523 28.054 215.273 28.2095 215.916 28.5206C216.56 28.8317 217.069 29.2685 217.444 29.831C217.819 30.3935 218.026 31.054 218.064 31.8125H215.494C215.422 31.3224 215.23 30.9283 214.919 30.63C214.612 30.3274 214.21 30.1761 213.711 30.1761C213.289 30.1761 212.92 30.2912 212.605 30.5213C212.294 30.7472 212.051 31.0774 211.876 31.5121C211.702 31.9467 211.614 32.473 211.614 33.0909C211.614 33.7173 211.7 34.25 211.87 34.6889C212.045 35.1278 212.29 35.4624 212.605 35.6925C212.92 35.9226 213.289 36.0376 213.711 36.0376C214.022 36.0376 214.301 35.9737 214.548 35.8459C214.8 35.718 215.006 35.5327 215.168 35.2898C215.335 35.0426 215.443 34.7464 215.494 34.4013H218.064C218.021 35.1513 217.817 35.8118 217.45 36.3828C217.088 36.9496 216.587 37.3928 215.948 37.7124C215.309 38.032 214.553 38.1918 213.679 38.1918ZM222.607 38.1854C221.981 38.1854 221.422 38.0767 220.932 37.8594C220.442 37.6378 220.055 37.3118 219.769 36.8814C219.488 36.4467 219.347 35.9055 219.347 35.2578C219.347 34.7124 219.447 34.2543 219.648 33.8835C219.848 33.5128 220.121 33.2145 220.466 32.9886C220.811 32.7628 221.203 32.5923 221.642 32.4773C222.085 32.3622 222.55 32.2812 223.035 32.2344C223.606 32.1747 224.067 32.1193 224.416 32.0682C224.765 32.0128 225.019 31.9318 225.177 31.8253C225.334 31.7187 225.413 31.5611 225.413 31.3523V31.3139C225.413 30.9091 225.285 30.5959 225.03 30.3743C224.778 30.1527 224.42 30.0419 223.956 30.0419C223.466 30.0419 223.076 30.1506 222.786 30.3679C222.496 30.581 222.305 30.8494 222.211 31.1733L219.692 30.9688C219.82 30.3722 220.072 29.8565 220.447 29.4219C220.822 28.983 221.305 28.6463 221.898 28.4119C222.494 28.1733 223.184 28.054 223.969 28.054C224.514 28.054 225.036 28.1179 225.535 28.2457C226.037 28.3736 226.483 28.5717 226.871 28.8402C227.263 29.1087 227.572 29.4538 227.797 29.8757C228.023 30.2933 228.136 30.794 228.136 31.3778V38H225.554V36.6385H225.477C225.319 36.9453 225.108 37.2159 224.844 37.4503C224.58 37.6804 224.263 37.8615 223.892 37.9936C223.521 38.1214 223.093 38.1854 222.607 38.1854ZM223.387 36.3061C223.787 36.3061 224.141 36.2273 224.448 36.0696C224.755 35.9077 224.996 35.6903 225.17 35.4176C225.345 35.1449 225.432 34.8359 225.432 34.4908V33.4489C225.347 33.5043 225.23 33.5554 225.081 33.6023C224.936 33.6449 224.772 33.6854 224.589 33.7237C224.405 33.7578 224.222 33.7898 224.039 33.8196C223.856 33.8452 223.689 33.8686 223.54 33.8899C223.221 33.9368 222.942 34.0114 222.703 34.1136C222.464 34.2159 222.279 34.3544 222.147 34.5291C222.015 34.6996 221.949 34.9126 221.949 35.1683C221.949 35.5391 222.083 35.8224 222.351 36.0185C222.624 36.2102 222.969 36.3061 223.387 36.3061ZM232.972 32.3239V38H230.249V28.1818H232.844V29.9141H232.959C233.176 29.343 233.541 28.8913 234.052 28.5589C234.563 28.2223 235.183 28.054 235.912 28.054C236.594 28.054 237.188 28.2031 237.695 28.5014C238.203 28.7997 238.597 29.2259 238.878 29.7798C239.159 30.3295 239.3 30.9858 239.3 31.7486V38H236.577V32.2344C236.581 31.6335 236.428 31.1648 236.117 30.8281C235.806 30.4872 235.377 30.3168 234.832 30.3168C234.465 30.3168 234.142 30.3956 233.86 30.5533C233.583 30.7109 233.366 30.9411 233.208 31.2436C233.055 31.5419 232.976 31.902 232.972 32.3239ZM244.246 38.1854C243.619 38.1854 243.061 38.0767 242.571 37.8594C242.081 37.6378 241.693 37.3118 241.408 36.8814C241.126 36.4467 240.986 35.9055 240.986 35.2578C240.986 34.7124 241.086 34.2543 241.286 33.8835C241.487 33.5128 241.759 33.2145 242.104 32.9886C242.45 32.7628 242.842 32.5923 243.281 32.4773C243.724 32.3622 244.188 32.2812 244.674 32.2344C245.245 32.1747 245.705 32.1193 246.055 32.0682C246.404 32.0128 246.658 31.9318 246.815 31.8253C246.973 31.7187 247.052 31.5611 247.052 31.3523V31.3139C247.052 30.9091 246.924 30.5959 246.668 30.3743C246.417 30.1527 246.059 30.0419 245.594 30.0419C245.104 30.0419 244.714 30.1506 244.425 30.3679C244.135 30.581 243.943 30.8494 243.849 31.1733L241.331 30.9688C241.459 30.3722 241.71 29.8565 242.085 29.4219C242.46 28.983 242.944 28.6463 243.536 28.4119C244.133 28.1733 244.823 28.054 245.607 28.054C246.153 28.054 246.675 28.1179 247.173 28.2457C247.676 28.3736 248.121 28.5717 248.509 28.8402C248.901 29.1087 249.21 29.4538 249.436 29.8757C249.662 30.2933 249.775 30.794 249.775 31.3778V38H247.192V36.6385H247.116C246.958 36.9453 246.747 37.2159 246.483 37.4503C246.219 37.6804 245.901 37.8615 245.531 37.9936C245.16 38.1214 244.732 38.1854 244.246 38.1854ZM245.026 36.3061C245.426 36.3061 245.78 36.2273 246.087 36.0696C246.393 35.9077 246.634 35.6903 246.809 35.4176C246.984 35.1449 247.071 34.8359 247.071 34.4908V33.4489C246.986 33.5043 246.869 33.5554 246.719 33.6023C246.575 33.6449 246.411 33.6854 246.227 33.7237C246.044 33.7578 245.861 33.7898 245.678 33.8196C245.494 33.8452 245.328 33.8686 245.179 33.8899C244.859 33.9368 244.58 34.0114 244.342 34.1136C244.103 34.2159 243.918 34.3544 243.786 34.5291C243.653 34.6996 243.587 34.9126 243.587 35.1683C243.587 35.5391 243.722 35.8224 243.99 36.0185C244.263 36.2102 244.608 36.3061 245.026 36.3061ZM254.687 38.1854C254.061 38.1854 253.502 38.0767 253.012 37.8594C252.522 37.6378 252.135 37.3118 251.849 36.8814C251.568 36.4467 251.427 35.9055 251.427 35.2578C251.427 34.7124 251.527 34.2543 251.728 33.8835C251.928 33.5128 252.201 33.2145 252.546 32.9886C252.891 32.7628 253.283 32.5923 253.722 32.4773C254.165 32.3622 254.63 32.2812 255.115 32.2344C255.686 32.1747 256.147 32.1193 256.496 32.0682C256.846 32.0128 257.099 31.9318 257.257 31.8253C257.414 31.7187 257.493 31.5611 257.493 31.3523V31.3139C257.493 30.9091 257.365 30.5959 257.11 30.3743C256.858 30.1527 256.5 30.0419 256.036 30.0419C255.546 30.0419 255.156 30.1506 254.866 30.3679C254.576 30.581 254.385 30.8494 254.291 31.1733L251.772 30.9688C251.9 30.3722 252.152 29.8565 252.527 29.4219C252.902 28.983 253.385 28.6463 253.978 28.4119C254.574 28.1733 255.265 28.054 256.049 28.054C256.594 28.054 257.116 28.1179 257.615 28.2457C258.118 28.3736 258.563 28.5717 258.951 28.8402C259.343 29.1087 259.652 29.4538 259.877 29.8757C260.103 30.2933 260.216 30.794 260.216 31.3778V38H257.634V36.6385H257.557C257.4 36.9453 257.189 37.2159 256.924 37.4503C256.66 37.6804 256.343 37.8615 255.972 37.9936C255.601 38.1214 255.173 38.1854 254.687 38.1854ZM255.467 36.3061C255.868 36.3061 256.221 36.2273 256.528 36.0696C256.835 35.9077 257.076 35.6903 257.25 35.4176C257.425 35.1449 257.512 34.8359 257.512 34.4908V33.4489C257.427 33.5043 257.31 33.5554 257.161 33.6023C257.016 33.6449 256.852 33.6854 256.669 33.7237C256.485 33.7578 256.302 33.7898 256.119 33.8196C255.936 33.8452 255.77 33.8686 255.62 33.8899C255.301 33.9368 255.022 34.0114 254.783 34.1136C254.544 34.2159 254.359 34.3544 254.227 34.5291C254.095 34.6996 254.029 34.9126 254.029 35.1683C254.029 35.5391 254.163 35.8224 254.431 36.0185C254.704 36.2102 255.049 36.3061 255.467 36.3061ZM265.052 32.3239V38H262.329V28.1818H264.924V29.9141H265.039C265.256 29.343 265.621 28.8913 266.132 28.5589C266.643 28.2223 267.263 28.054 267.992 28.054C268.674 28.054 269.268 28.2031 269.776 28.5014C270.283 28.7997 270.677 29.2259 270.958 29.7798C271.239 30.3295 271.38 30.9858 271.38 31.7486V38H268.657V32.2344C268.661 31.6335 268.508 31.1648 268.197 30.8281C267.886 30.4872 267.457 30.3168 266.912 30.3168C266.545 30.3168 266.222 30.3956 265.94 30.5533C265.663 30.7109 265.446 30.9411 265.288 31.2436C265.135 31.5419 265.056 31.902 265.052 32.3239Z" fill="white"/>
<path d="M93.1378 60V46.9091H98.3026C99.2955 46.9091 100.141 47.0987 100.84 47.478C101.539 47.853 102.072 48.375 102.438 49.044C102.809 49.7088 102.994 50.4759 102.994 51.3452C102.994 52.2145 102.807 52.9815 102.432 53.6463C102.057 54.3111 101.513 54.8288 100.802 55.1996C100.094 55.5703 99.2379 55.7557 98.2322 55.7557H94.9403V53.5376H97.7848C98.3175 53.5376 98.7564 53.446 99.1016 53.2628C99.451 53.0753 99.7109 52.8175 99.8814 52.4893C100.056 52.157 100.143 51.7756 100.143 51.3452C100.143 50.9105 100.056 50.5312 99.8814 50.2074C99.7109 49.8793 99.451 49.6257 99.1016 49.4467C98.7521 49.2635 98.3089 49.1719 97.772 49.1719H95.9055V60H93.1378ZM109.057 60.1918C108.047 60.1918 107.178 59.9872 106.449 59.5781C105.725 59.1648 105.167 58.581 104.775 57.8267C104.382 57.0682 104.186 56.1712 104.186 55.1357C104.186 54.1257 104.382 53.2393 104.775 52.4766C105.167 51.7138 105.718 51.1193 106.43 50.6932C107.146 50.267 107.985 50.054 108.949 50.054C109.596 50.054 110.199 50.1584 110.757 50.3672C111.32 50.5717 111.81 50.8807 112.228 51.294C112.65 51.7074 112.978 52.2273 113.212 52.8537C113.446 53.4759 113.564 54.2045 113.564 55.0398V55.7876H105.273V54.1001H111C111 53.7081 110.915 53.3608 110.745 53.0582C110.574 52.7557 110.338 52.5192 110.035 52.3487C109.737 52.174 109.39 52.0866 108.993 52.0866C108.58 52.0866 108.213 52.1825 107.894 52.3743C107.578 52.5618 107.331 52.8153 107.152 53.1349C106.973 53.4503 106.882 53.8018 106.877 54.1896V55.794C106.877 56.2798 106.967 56.6996 107.146 57.0533C107.329 57.407 107.587 57.6797 107.919 57.8714C108.252 58.0632 108.646 58.1591 109.102 58.1591C109.404 58.1591 109.681 58.1165 109.933 58.0312C110.184 57.946 110.4 57.8182 110.578 57.6477C110.757 57.4773 110.894 57.2685 110.988 57.0213L113.506 57.1875C113.378 57.7926 113.116 58.321 112.72 58.7727C112.328 59.2202 111.821 59.5696 111.199 59.821C110.581 60.0682 109.867 60.1918 109.057 60.1918ZM115.341 60V50.1818H117.936V51.9141H118.051C118.255 51.3388 118.596 50.8849 119.074 50.5526C119.551 50.2202 120.122 50.054 120.787 50.054C121.46 50.054 122.033 50.2223 122.506 50.5589C122.979 50.8913 123.294 51.343 123.452 51.9141H123.554C123.755 51.3516 124.117 50.902 124.641 50.5653C125.169 50.2244 125.794 50.054 126.514 50.054C127.43 50.054 128.174 50.3459 128.745 50.9297C129.32 51.5092 129.608 52.3317 129.608 53.397V60H126.891V53.9339C126.891 53.3885 126.746 52.9794 126.456 52.7067C126.167 52.4339 125.804 52.2976 125.37 52.2976C124.875 52.2976 124.49 52.4553 124.213 52.7706C123.936 53.0817 123.797 53.4929 123.797 54.0043V60H121.157V53.8764C121.157 53.3949 121.019 53.0114 120.742 52.7259C120.469 52.4403 120.109 52.2976 119.662 52.2976C119.359 52.2976 119.086 52.3743 118.843 52.5277C118.605 52.6768 118.415 52.8878 118.275 53.1605C118.134 53.429 118.064 53.7443 118.064 54.1065V60H115.341ZM131.81 60V46.9091H134.533V51.831H134.616C134.735 51.5668 134.908 51.2983 135.134 51.0256C135.364 50.7486 135.662 50.5185 136.028 50.3352C136.399 50.1477 136.859 50.054 137.409 50.054C138.125 50.054 138.786 50.2415 139.391 50.6165C139.996 50.9872 140.479 51.5476 140.842 52.2976C141.204 53.0433 141.385 53.9787 141.385 55.1037C141.385 56.1989 141.208 57.1236 140.854 57.8778C140.505 58.6278 140.028 59.1967 139.423 59.5845C138.822 59.968 138.148 60.1598 137.403 60.1598C136.874 60.1598 136.425 60.0724 136.054 59.8977C135.688 59.723 135.387 59.5036 135.153 59.2393C134.918 58.9709 134.739 58.7003 134.616 58.4276H134.494V60H131.81ZM134.475 55.0909C134.475 55.6747 134.556 56.1839 134.718 56.6186C134.88 57.0533 135.114 57.392 135.421 57.6349C135.728 57.8736 136.101 57.9929 136.54 57.9929C136.983 57.9929 137.358 57.8714 137.665 57.6286C137.972 57.3814 138.204 57.0405 138.362 56.6058C138.523 56.1669 138.604 55.6619 138.604 55.0909C138.604 54.5241 138.526 54.0256 138.368 53.5952C138.21 53.1648 137.978 52.8281 137.671 52.5852C137.364 52.3423 136.987 52.2209 136.54 52.2209C136.097 52.2209 135.722 52.3381 135.415 52.5724C135.112 52.8068 134.88 53.1392 134.718 53.5696C134.556 54 134.475 54.5071 134.475 55.0909ZM146.002 60.1854C145.375 60.1854 144.817 60.0767 144.327 59.8594C143.837 59.6378 143.449 59.3118 143.164 58.8814C142.882 58.4467 142.742 57.9055 142.742 57.2578C142.742 56.7124 142.842 56.2543 143.042 55.8835C143.242 55.5128 143.515 55.2145 143.86 54.9886C144.205 54.7628 144.597 54.5923 145.036 54.4773C145.48 54.3622 145.944 54.2812 146.43 54.2344C147.001 54.1747 147.461 54.1193 147.811 54.0682C148.16 54.0128 148.414 53.9318 148.571 53.8253C148.729 53.7187 148.808 53.5611 148.808 53.3523V53.3139C148.808 52.9091 148.68 52.5959 148.424 52.3743C148.173 52.1527 147.815 52.0419 147.35 52.0419C146.86 52.0419 146.47 52.1506 146.181 52.3679C145.891 52.581 145.699 52.8494 145.605 53.1733L143.087 52.9688C143.215 52.3722 143.466 51.8565 143.841 51.4219C144.216 50.983 144.7 50.6463 145.292 50.4119C145.889 50.1733 146.579 50.054 147.363 50.054C147.909 50.054 148.431 50.1179 148.929 50.2457C149.432 50.3736 149.877 50.5717 150.265 50.8402C150.657 51.1087 150.966 51.4538 151.192 51.8757C151.418 52.2933 151.531 52.794 151.531 53.3778V60H148.948V58.6385H148.872C148.714 58.9453 148.503 59.2159 148.239 59.4503C147.975 59.6804 147.657 59.8615 147.286 59.9936C146.916 60.1214 146.487 60.1854 146.002 60.1854ZM146.781 58.3061C147.182 58.3061 147.536 58.2273 147.843 58.0696C148.149 57.9077 148.39 57.6903 148.565 57.4176C148.74 57.1449 148.827 56.8359 148.827 56.4908V55.4489C148.742 55.5043 148.624 55.5554 148.475 55.6023C148.33 55.6449 148.166 55.6854 147.983 55.7237C147.8 55.7578 147.617 55.7898 147.433 55.8196C147.25 55.8452 147.084 55.8686 146.935 55.8899C146.615 55.9368 146.336 56.0114 146.097 56.1136C145.859 56.2159 145.673 56.3544 145.541 56.5291C145.409 56.6996 145.343 56.9126 145.343 57.1683C145.343 57.5391 145.477 57.8224 145.746 58.0185C146.019 58.2102 146.364 58.3061 146.781 58.3061ZM156.366 54.3239V60H153.643V50.1818H156.238V51.9141H156.354C156.571 51.343 156.935 50.8913 157.447 50.5589C157.958 50.2223 158.578 50.054 159.307 50.054C159.988 50.054 160.583 50.2031 161.09 50.5014C161.597 50.7997 161.991 51.2259 162.273 51.7798C162.554 52.3295 162.694 52.9858 162.694 53.7486V60H159.971V54.2344C159.976 53.6335 159.822 53.1648 159.511 52.8281C159.2 52.4872 158.772 52.3168 158.226 52.3168C157.86 52.3168 157.536 52.3956 157.255 52.5533C156.978 52.7109 156.76 52.9411 156.603 53.2436C156.449 53.5419 156.371 53.902 156.366 54.3239ZM169.264 63.8864C168.382 63.8864 167.625 63.7649 166.995 63.522C166.368 63.2834 165.87 62.9574 165.499 62.544C165.128 62.1307 164.887 61.6662 164.777 61.1506L167.295 60.8118C167.372 61.0078 167.493 61.1911 167.659 61.3615C167.826 61.532 168.045 61.6683 168.318 61.7706C168.595 61.8771 168.931 61.9304 169.328 61.9304C169.92 61.9304 170.408 61.7855 170.792 61.4957C171.179 61.2102 171.373 60.7308 171.373 60.0575V58.2614H171.258C171.139 58.5341 170.96 58.7919 170.721 59.0348C170.483 59.2777 170.176 59.4759 169.801 59.6293C169.426 59.7827 168.978 59.8594 168.458 59.8594C167.721 59.8594 167.05 59.6889 166.445 59.348C165.844 59.0028 165.365 58.4766 165.007 57.7692C164.653 57.0575 164.476 56.1584 164.476 55.0717C164.476 53.9595 164.657 53.0305 165.02 52.2848C165.382 51.5391 165.863 50.9808 166.464 50.6101C167.069 50.2393 167.732 50.054 168.452 50.054C169.002 50.054 169.462 50.1477 169.833 50.3352C170.203 50.5185 170.502 50.7486 170.728 51.0256C170.958 51.2983 171.135 51.5668 171.258 51.831H171.36V50.1818H174.064V60.0959C174.064 60.9311 173.86 61.63 173.451 62.1925C173.042 62.755 172.475 63.1768 171.75 63.4581C171.03 63.7436 170.201 63.8864 169.264 63.8864ZM169.321 57.8139C169.76 57.8139 170.131 57.7053 170.434 57.4879C170.74 57.2663 170.975 56.951 171.137 56.5419C171.303 56.1286 171.386 55.6342 171.386 55.0589C171.386 54.4837 171.305 53.9851 171.143 53.5632C170.981 53.1371 170.747 52.8068 170.44 52.5724C170.133 52.3381 169.76 52.2209 169.321 52.2209C168.874 52.2209 168.497 52.3423 168.19 52.5852C167.883 52.8239 167.651 53.1562 167.493 53.5824C167.336 54.0085 167.257 54.5007 167.257 55.0589C167.257 55.6257 167.336 56.1158 167.493 56.5291C167.655 56.9382 167.887 57.2557 168.19 57.4815C168.497 57.7031 168.874 57.8139 169.321 57.8139ZM182.527 55.8196V50.1818H185.25V60H182.636V58.2166H182.534C182.312 58.7919 181.944 59.2543 181.428 59.6037C180.917 59.9531 180.292 60.1278 179.555 60.1278C178.899 60.1278 178.321 59.9787 177.823 59.6804C177.324 59.3821 176.934 58.9581 176.653 58.4084C176.376 57.8587 176.235 57.2003 176.231 56.4332V50.1818H178.954V55.9474C178.958 56.527 179.114 56.9851 179.421 57.3217C179.728 57.6584 180.139 57.8267 180.654 57.8267C180.983 57.8267 181.289 57.7521 181.575 57.603C181.86 57.4496 182.091 57.2237 182.265 56.9254C182.444 56.6271 182.532 56.2585 182.527 55.8196ZM190.151 54.3239V60H187.428V50.1818H190.024V51.9141H190.139C190.356 51.343 190.72 50.8913 191.232 50.5589C191.743 50.2223 192.363 50.054 193.092 50.054C193.774 50.054 194.368 50.2031 194.875 50.5014C195.382 50.7997 195.776 51.2259 196.058 51.7798C196.339 52.3295 196.48 52.9858 196.48 53.7486V60H193.757V54.2344C193.761 53.6335 193.607 53.1648 193.296 52.8281C192.985 52.4872 192.557 52.3168 192.012 52.3168C191.645 52.3168 191.321 52.3956 191.04 52.5533C190.763 52.7109 190.546 52.9411 190.388 53.2436C190.235 53.5419 190.156 53.902 190.151 54.3239ZM201.425 60.1854C200.799 60.1854 200.241 60.0767 199.751 59.8594C199.261 59.6378 198.873 59.3118 198.587 58.8814C198.306 58.4467 198.165 57.9055 198.165 57.2578C198.165 56.7124 198.266 56.2543 198.466 55.8835C198.666 55.5128 198.939 55.2145 199.284 54.9886C199.629 54.7628 200.021 54.5923 200.46 54.4773C200.903 54.3622 201.368 54.2812 201.854 54.2344C202.425 54.1747 202.885 54.1193 203.234 54.0682C203.584 54.0128 203.837 53.9318 203.995 53.8253C204.153 53.7187 204.232 53.5611 204.232 53.3523V53.3139C204.232 52.9091 204.104 52.5959 203.848 52.3743C203.597 52.1527 203.239 52.0419 202.774 52.0419C202.284 52.0419 201.894 52.1506 201.604 52.3679C201.315 52.581 201.123 52.8494 201.029 53.1733L198.511 52.9688C198.638 52.3722 198.89 51.8565 199.265 51.4219C199.64 50.983 200.124 50.6463 200.716 50.4119C201.313 50.1733 202.003 50.054 202.787 50.054C203.332 50.054 203.854 50.1179 204.353 50.2457C204.856 50.3736 205.301 50.5717 205.689 50.8402C206.081 51.1087 206.39 51.4538 206.616 51.8757C206.842 52.2933 206.955 52.794 206.955 53.3778V60H204.372V58.6385H204.295C204.138 58.9453 203.927 59.2159 203.663 59.4503C203.398 59.6804 203.081 59.8615 202.71 59.9936C202.339 60.1214 201.911 60.1854 201.425 60.1854ZM202.205 58.3061C202.606 58.3061 202.96 58.2273 203.266 58.0696C203.573 57.9077 203.814 57.6903 203.989 57.4176C204.163 57.1449 204.251 56.8359 204.251 56.4908V55.4489C204.165 55.5043 204.048 55.5554 203.899 55.6023C203.754 55.6449 203.59 55.6854 203.407 55.7237C203.224 55.7578 203.04 55.7898 202.857 55.8196C202.674 55.8452 202.508 55.8686 202.359 55.8899C202.039 55.9368 201.76 56.0114 201.521 56.1136C201.283 56.2159 201.097 56.3544 200.965 56.5291C200.833 56.6996 200.767 56.9126 200.767 57.1683C200.767 57.5391 200.901 57.8224 201.17 58.0185C201.442 58.2102 201.788 58.3061 202.205 58.3061ZM211.79 54.3239V60H209.067V50.1818H211.662V51.9141H211.777C211.995 51.343 212.359 50.8913 212.87 50.5589C213.382 50.2223 214.002 50.054 214.73 50.054C215.412 50.054 216.007 50.2031 216.514 50.5014C217.021 50.7997 217.415 51.2259 217.696 51.7798C217.978 52.3295 218.118 52.9858 218.118 53.7486V60H215.395V54.2344C215.4 53.6335 215.246 53.1648 214.935 52.8281C214.624 52.4872 214.196 52.3168 213.65 52.3168C213.284 52.3168 212.96 52.3956 212.679 52.5533C212.402 52.7109 212.184 52.9411 212.027 53.2436C211.873 53.5419 211.794 53.902 211.79 54.3239ZM229.122 60H224.482V46.9091H229.161C230.477 46.9091 231.611 47.1712 232.561 47.6953C233.511 48.2152 234.242 48.9631 234.754 49.9389C235.269 50.9148 235.527 52.0824 235.527 53.4418C235.527 54.8054 235.269 55.9773 234.754 56.9574C234.242 57.9375 233.507 58.6896 232.548 59.2138C231.594 59.7379 230.452 60 229.122 60ZM227.249 57.6286H229.007C229.825 57.6286 230.513 57.4837 231.072 57.1939C231.634 56.8999 232.056 56.446 232.337 55.8324C232.623 55.2145 232.766 54.4176 232.766 53.4418C232.766 52.4744 232.623 51.6839 232.337 51.0703C232.056 50.4567 231.636 50.005 231.078 49.7152C230.52 49.4254 229.832 49.2805 229.013 49.2805H227.249V57.6286ZM242.001 60.1918C240.991 60.1918 240.121 59.9872 239.393 59.5781C238.668 59.1648 238.11 58.581 237.718 57.8267C237.326 57.0682 237.13 56.1712 237.13 55.1357C237.13 54.1257 237.326 53.2393 237.718 52.4766C238.11 51.7138 238.662 51.1193 239.373 50.6932C240.089 50.267 240.929 50.054 241.892 50.054C242.54 50.054 243.143 50.1584 243.701 50.3672C244.263 50.5717 244.753 50.8807 245.171 51.294C245.593 51.7074 245.921 52.2273 246.155 52.8537C246.39 53.4759 246.507 54.2045 246.507 55.0398V55.7876H238.216V54.1001H243.944C243.944 53.7081 243.858 53.3608 243.688 53.0582C243.518 52.7557 243.281 52.5192 242.979 52.3487C242.68 52.174 242.333 52.0866 241.937 52.0866C241.523 52.0866 241.157 52.1825 240.837 52.3743C240.522 52.5618 240.275 52.8153 240.096 53.1349C239.917 53.4503 239.825 53.8018 239.821 54.1896V55.794C239.821 56.2798 239.91 56.6996 240.089 57.0533C240.273 57.407 240.53 57.6797 240.863 57.8714C241.195 58.0632 241.589 58.1591 242.045 58.1591C242.348 58.1591 242.625 58.1165 242.876 58.0312C243.128 57.946 243.343 57.8182 243.522 57.6477C243.701 57.4773 243.837 57.2685 243.931 57.0213L246.449 57.1875C246.322 57.7926 246.059 58.321 245.663 58.7727C245.271 59.2202 244.764 59.5696 244.142 59.821C243.524 60.0682 242.81 60.1918 242.001 60.1918ZM256.453 52.9815L253.96 53.1349C253.917 52.9219 253.826 52.7301 253.685 52.5597C253.545 52.3849 253.359 52.2464 253.129 52.1442C252.903 52.0376 252.633 51.9844 252.317 51.9844C251.895 51.9844 251.54 52.0739 251.25 52.2528C250.96 52.4276 250.815 52.6619 250.815 52.956C250.815 53.1903 250.909 53.3885 251.096 53.5504C251.284 53.7124 251.606 53.8423 252.062 53.9403L253.839 54.2983C254.793 54.4943 255.505 54.8097 255.974 55.2443C256.442 55.679 256.677 56.25 256.677 56.9574C256.677 57.6009 256.487 58.1655 256.108 58.6513C255.733 59.1371 255.217 59.5163 254.561 59.7891C253.909 60.0575 253.157 60.1918 252.305 60.1918C251.005 60.1918 249.969 59.9212 249.198 59.38C248.431 58.8345 247.981 58.093 247.849 57.1555L250.528 57.0149C250.608 57.4112 250.805 57.7138 251.116 57.9226C251.427 58.1271 251.825 58.2294 252.311 58.2294C252.788 58.2294 253.172 58.1378 253.461 57.9545C253.756 57.767 253.905 57.5263 253.909 57.2322C253.905 56.9851 253.8 56.7827 253.596 56.625C253.391 56.4631 253.076 56.3395 252.65 56.2543L250.949 55.9155C249.991 55.7237 249.277 55.3913 248.808 54.9183C248.344 54.4453 248.111 53.8423 248.111 53.1094C248.111 52.4787 248.282 51.9354 248.623 51.4794C248.968 51.0234 249.452 50.6719 250.074 50.4247C250.7 50.1776 251.433 50.054 252.273 50.054C253.513 50.054 254.488 50.3161 255.2 50.8402C255.916 51.3643 256.334 52.0781 256.453 52.9815ZM261.191 60.1854C260.565 60.1854 260.006 60.0767 259.516 59.8594C259.026 59.6378 258.638 59.3118 258.353 58.8814C258.072 58.4467 257.931 57.9055 257.931 57.2578C257.931 56.7124 258.031 56.2543 258.232 55.8835C258.432 55.5128 258.705 55.2145 259.05 54.9886C259.395 54.7628 259.787 54.5923 260.226 54.4773C260.669 54.3622 261.134 54.2812 261.619 54.2344C262.19 54.1747 262.651 54.1193 263 54.0682C263.349 54.0128 263.603 53.9318 263.761 53.8253C263.918 53.7187 263.997 53.5611 263.997 53.3523V53.3139C263.997 52.9091 263.869 52.5959 263.614 52.3743C263.362 52.1527 263.004 52.0419 262.54 52.0419C262.05 52.0419 261.66 52.1506 261.37 52.3679C261.08 52.581 260.888 52.8494 260.795 53.1733L258.276 52.9688C258.404 52.3722 258.656 51.8565 259.031 51.4219C259.406 50.983 259.889 50.6463 260.482 50.4119C261.078 50.1733 261.768 50.054 262.553 50.054C263.098 50.054 263.62 50.1179 264.119 50.2457C264.621 50.3736 265.067 50.5717 265.455 50.8402C265.847 51.1087 266.156 51.4538 266.381 51.8757C266.607 52.2933 266.72 52.794 266.72 53.3778V60H264.138V58.6385H264.061C263.903 58.9453 263.692 59.2159 263.428 59.4503C263.164 59.6804 262.847 59.8615 262.476 59.9936C262.105 60.1214 261.677 60.1854 261.191 60.1854ZM261.971 58.3061C262.371 58.3061 262.725 58.2273 263.032 58.0696C263.339 57.9077 263.58 57.6903 263.754 57.4176C263.929 57.1449 264.016 56.8359 264.016 56.4908V55.4489C263.931 55.5043 263.814 55.5554 263.665 55.6023C263.52 55.6449 263.356 55.6854 263.173 55.7237C262.989 55.7578 262.806 55.7898 262.623 55.8196C262.44 55.8452 262.273 55.8686 262.124 55.8899C261.805 55.9368 261.526 56.0114 261.287 56.1136C261.048 56.2159 260.863 56.3544 260.731 56.5291C260.599 56.6996 260.533 56.9126 260.533 57.1683C260.533 57.5391 260.667 57.8224 260.935 58.0185C261.208 58.2102 261.553 58.3061 261.971 58.3061Z" fill="white"/>
<path d="M95.72 15.084C95.136 15.084 94.608 14.984 94.136 14.784C93.672 14.584 93.304 14.296 93.032 13.92C92.76 13.544 92.62 13.1 92.612 12.588H94.412C94.436 12.932 94.556 13.204 94.772 13.404C94.996 13.604 95.3 13.704 95.684 13.704C96.076 13.704 96.384 13.612 96.608 13.428C96.832 13.236 96.944 12.988 96.944 12.684C96.944 12.436 96.868 12.232 96.716 12.072C96.564 11.912 96.372 11.788 96.14 11.7C95.916 11.604 95.604 11.5 95.204 11.388C94.66 11.228 94.216 11.072 93.872 10.92C93.536 10.76 93.244 10.524 92.996 10.212C92.756 9.892 92.636 9.468 92.636 8.94C92.636 8.444 92.76 8.012 93.008 7.644C93.256 7.276 93.604 6.996 94.052 6.804C94.5 6.604 95.012 6.504 95.588 6.504C96.452 6.504 97.152 6.716 97.688 7.14C98.232 7.556 98.532 8.14 98.588 8.892H96.74C96.724 8.604 96.6 8.368 96.368 8.184C96.144 7.992 95.844 7.896 95.468 7.896C95.14 7.896 94.876 7.98 94.676 8.148C94.484 8.316 94.388 8.56 94.388 8.88C94.388 9.104 94.46 9.292 94.604 9.444C94.756 9.588 94.94 9.708 95.156 9.804C95.38 9.892 95.692 9.996 96.092 10.116C96.636 10.276 97.08 10.436 97.424 10.596C97.768 10.756 98.064 10.996 98.312 11.316C98.56 11.636 98.684 12.056 98.684 12.576C98.684 13.024 98.568 13.44 98.336 13.824C98.104 14.208 97.764 14.516 97.316 14.748C96.868 14.972 96.336 15.084 95.72 15.084ZM101.821 6.624V15H100.141V6.624H101.821ZM109.588 9.216C109.588 9.664 109.48 10.084 109.264 10.476C109.056 10.868 108.724 11.184 108.268 11.424C107.82 11.664 107.252 11.784 106.564 11.784H105.16V15H103.48V6.624H106.564C107.212 6.624 107.764 6.736 108.22 6.96C108.676 7.184 109.016 7.492 109.24 7.884C109.472 8.276 109.588 8.72 109.588 9.216ZM106.492 10.428C106.956 10.428 107.3 10.324 107.524 10.116C107.748 9.9 107.86 9.6 107.86 9.216C107.86 8.4 107.404 7.992 106.492 7.992H105.16V10.428H106.492ZM115.533 10.704C116.005 10.792 116.393 11.028 116.697 11.412C117.001 11.796 117.153 12.236 117.153 12.732C117.153 13.18 117.041 13.576 116.817 13.92C116.601 14.256 116.285 14.52 115.869 14.712C115.453 14.904 114.961 15 114.393 15H110.781V6.624H114.237C114.805 6.624 115.293 6.716 115.701 6.9C116.117 7.084 116.429 7.34 116.637 7.668C116.853 7.996 116.961 8.368 116.961 8.784C116.961 9.272 116.829 9.68 116.565 10.008C116.309 10.336 115.965 10.568 115.533 10.704ZM112.461 10.08H113.997C114.397 10.08 114.705 9.992 114.921 9.816C115.137 9.632 115.245 9.372 115.245 9.036C115.245 8.7 115.137 8.44 114.921 8.256C114.705 8.072 114.397 7.98 113.997 7.98H112.461V10.08ZM114.153 13.632C114.561 13.632 114.877 13.536 115.101 13.344C115.333 13.152 115.449 12.88 115.449 12.528C115.449 12.168 115.329 11.888 115.089 11.688C114.849 11.48 114.525 11.376 114.117 11.376H112.461V13.632H114.153ZM123.628 13.404H120.292L119.74 15H117.976L120.988 6.612H122.944L125.956 15H124.18L123.628 13.404ZM123.172 12.06L121.96 8.556L120.748 12.06H123.172ZM134.246 15H132.566L128.762 9.252V15H127.082V6.612H128.762L132.566 12.372V6.612H134.246V15ZM141.738 9.144C141.546 8.792 141.282 8.524 140.946 8.34C140.61 8.156 140.218 8.064 139.77 8.064C139.274 8.064 138.834 8.176 138.45 8.4C138.066 8.624 137.766 8.944 137.55 9.36C137.334 9.776 137.226 10.256 137.226 10.8C137.226 11.36 137.334 11.848 137.55 12.264C137.774 12.68 138.082 13 138.474 13.224C138.866 13.448 139.322 13.56 139.842 13.56C140.482 13.56 141.006 13.392 141.414 13.056C141.822 12.712 142.09 12.236 142.218 11.628H139.338V10.344H143.874V11.808C143.762 12.392 143.522 12.932 143.154 13.428C142.786 13.924 142.31 14.324 141.726 14.628C141.15 14.924 140.502 15.072 139.782 15.072C138.974 15.072 138.242 14.892 137.586 14.532C136.938 14.164 136.426 13.656 136.05 13.008C135.682 12.36 135.498 11.624 135.498 10.8C135.498 9.976 135.682 9.24 136.05 8.592C136.426 7.936 136.938 7.428 137.586 7.068C138.242 6.7 138.97 6.516 139.77 6.516C140.714 6.516 141.534 6.748 142.23 7.212C142.926 7.668 143.406 8.312 143.67 9.144H141.738ZM148.045 6.624C148.925 6.624 149.697 6.796 150.361 7.14C151.033 7.484 151.549 7.976 151.909 8.616C152.277 9.248 152.461 9.984 152.461 10.824C152.461 11.664 152.277 12.4 151.909 13.032C151.549 13.656 151.033 14.14 150.361 14.484C149.697 14.828 148.925 15 148.045 15H145.117V6.624H148.045ZM147.985 13.572C148.865 13.572 149.545 13.332 150.025 12.852C150.505 12.372 150.745 11.696 150.745 10.824C150.745 9.952 150.505 9.272 150.025 8.784C149.545 8.288 148.865 8.04 147.985 8.04H146.797V13.572H147.985ZM155.399 7.98V10.08H158.219V11.412H155.399V13.632H158.579V15H153.719V6.612H158.579V7.98H155.399ZM162.997 15.084C162.413 15.084 161.885 14.984 161.413 14.784C160.949 14.584 160.581 14.296 160.309 13.92C160.037 13.544 159.897 13.1 159.889 12.588H161.689C161.713 12.932 161.833 13.204 162.049 13.404C162.273 13.604 162.577 13.704 162.961 13.704C163.353 13.704 163.661 13.612 163.885 13.428C164.109 13.236 164.221 12.988 164.221 12.684C164.221 12.436 164.145 12.232 163.993 12.072C163.841 11.912 163.649 11.788 163.417 11.7C163.193 11.604 162.881 11.5 162.481 11.388C161.937 11.228 161.493 11.072 161.149 10.92C160.813 10.76 160.521 10.524 160.273 10.212C160.033 9.892 159.913 9.468 159.913 8.94C159.913 8.444 160.037 8.012 160.285 7.644C160.533 7.276 160.881 6.996 161.329 6.804C161.777 6.604 162.289 6.504 162.865 6.504C163.729 6.504 164.429 6.716 164.965 7.14C165.509 7.556 165.809 8.14 165.865 8.892H164.017C164.001 8.604 163.877 8.368 163.645 8.184C163.421 7.992 163.121 7.896 162.745 7.896C162.417 7.896 162.153 7.98 161.953 8.148C161.761 8.316 161.665 8.56 161.665 8.88C161.665 9.104 161.737 9.292 161.881 9.444C162.033 9.588 162.217 9.708 162.433 9.804C162.657 9.892 162.969 9.996 163.369 10.116C163.913 10.276 164.357 10.436 164.701 10.596C165.045 10.756 165.341 10.996 165.589 11.316C165.837 11.636 165.961 12.056 165.961 12.576C165.961 13.024 165.845 13.44 165.613 13.824C165.381 14.208 165.041 14.516 164.593 14.748C164.145 14.972 163.613 15.084 162.997 15.084Z" fill="white"/>
</svg>
