<svg width="98" height="80" viewBox="0 0 98 80" fill="none" xmlns="http://www.w3.org/2000/svg">
<path d="M69.3396 50.3725C69.3396 38.0424 59.4054 28.0469 47.151 28.0469H28.6604V50.3725H47.151V78.2794H69.3396V50.3725Z" fill="white"/>
<path d="M0.924561 52.2329C0.924562 66.618 12.5145 78.2794 26.8114 78.2794H41.6038V55.9539H26.8114C24.7689 55.9539 23.1132 54.288 23.1132 52.2329V50.3725H0.924561V52.2329Z" fill="white"/>
<path d="M47.151 0.1399C74.7235 0.1399 97.0755 22.6298 97.0755 50.3725V78.2794H74.8868V50.3725C74.8868 34.9598 62.4691 22.4655 47.151 22.4655H26.8113C24.7689 22.4655 23.1132 24.1313 23.1132 26.1864V28.0469H0.924561V26.1864C0.924562 11.8013 12.5145 0.1399 26.8113 0.1399H47.151Z" fill="white"/>
</svg>
